# xmcd
#
# Track frame offsets: 
#        150
#        14338
#        25438
#        37379
#        49198
#        60194
#        74110
#        87617
#        101327
#        116822
#        131797
#        142057
#        155275
#        167071
#        183968
#        195792
#        207387
#
# Disc length: 2911 seconds
#
# Revision: 0
# Processed by: cddbd v1.5.2PL0 Copyright (c) Steve Scherf et al.
# Submitted via: ExactAudioCopy v1.3
#
DISCID=fa0b5d11
DTITLE=Conway Twitty - 17 Number 1's
DYEAR=2010
DGENRE=Country
TTITLE0=You've Never Been This Far Before
TTITLE1=Hello Darlin'
TTITLE2=She Needs Someone To Hold Her (When She Cries)
TTITLE3=Linda On My Mind
TTITLE4=As Soon As I Hang Up The Phone
TTITLE5=Fifteen Years Ago
TTITLE6=The Games That Daddies Play
TTITLE7=Baby's Gone
TTITLE8=Touch The Hand
TTITLE9=(Lost Her Love) On Our Last Date
TTITLE10=I Can't Believe She Gives It All To Me
TTITLE11=After All The Good Is Gone
TTITLE12=I'm Not Through Loving You Yet
TTITLE13=Don't Cry Joni
TTITLE14=I Can't See Me Without You
TTITLE15=To See An Angel Cry
TTITLE16=It's Only Make Believe
EXTD=
EXTT0=
EXTT1=
EXTT2=
EXTT3=
EXTT4=
EXTT5=
EXTT6=
EXTT7=
EXTT8=
EXTT9=
EXTT10=
EXTT11=
EXTT12=
EXTT13=
EXTT14=
EXTT15=
EXTT16=
PLAYORDER=
